<svg width="147" height="147" viewBox="0 0 147 147" fill="none" xmlns="http://www.w3.org/2000/svg">
<g id="Group 43">
<rect id="Rectangle 16" width="147" height="147" rx="20" fill="#F48C06"/>
<g id="Union">
<path fill-rule="evenodd" clip-rule="evenodd" d="M115.594 99.3815C116.739 97.7526 117.492 95.8812 117.794 93.9134C118.304 90.9677 117.861 87.9361 116.531 85.2587C117.986 82.0477 117.652 78.0674 115.543 74.0954C114.529 72.2039 112.969 70.6601 111.067 69.6636C110.097 64.0443 104.952 58.517 97.9072 55.8746C94.3055 54.4557 90.3776 54.0762 86.5707 54.7791C76.7821 49.9459 63.8309 50.3974 55.8662 55.4899C54.3828 56.4255 53.0629 57.5978 51.9591 58.9602C39.2673 62.0708 32.9088 70.4998 30.7838 77.9001C29.1858 83.4358 30.0643 88.6621 33.118 91.7978C35.5498 94.2945 39.1511 95.32 43.4367 94.7692C43.5011 94.7966 43.5658 94.8236 43.6306 94.8502C44.4331 96.5674 45.6933 98.0314 47.2739 99.0812C49.332 100.503 53.3228 101.213 55.7407 101.213C56.4946 101.212 57.2468 101.145 57.9886 101.012C58.1208 101.089 58.2543 101.165 58.389 101.239C58.6021 101.654 58.8351 102.059 59.0872 102.451C62.0248 107.173 66.4355 107.149 70.4034 106.21C71.2614 106.923 72.2043 107.571 73.2191 108.145L84.3369 124L91.5655 123.749L88.7544 113.915C96.2841 116.031 110.331 112.82 109.67 103.981C110.196 103.799 110.705 103.572 111.193 103.304C112.943 102.353 114.449 101.01 115.594 99.3815ZM51.9223 95.8118C52.0363 95.7939 52.15 95.7748 52.2632 95.7544C52.2854 95.7877 52.3077 95.8208 52.3302 95.8539L52.3725 95.9158C52.218 95.8852 52.068 95.8505 51.9223 95.8118Z" fill="black"/>
<path d="M80.4716 44.4688L85.2823 32.1013C88.838 32.5696 91.5153 27.2681 87.558 25.0103C83.6007 22.7526 79.9948 27.82 82.764 30.7718C78.1542 36.3576 75.3263 35.2622 73.4523 29.3669C76.9661 28.1461 76.4725 22 72.0635 22C67.6544 22 66.9432 27.8534 70.4906 29.2666C68.6165 35.7304 64.5086 36.1151 61.4967 30.6547C63.9564 27.8534 60.476 22.7442 56.6693 24.9434C52.8626 27.1426 55.1801 32.5863 58.9366 32.0344L64.4417 44.5775L80.4716 44.4688Z" fill="black"/>
</g>
</g>
</svg>
