<svg width="169" height="158" viewBox="0 0 169 158" fill="none" xmlns="http://www.w3.org/2000/svg">
<g id="Group 42">
<g id="Group 41">
<g id="Group 37">
<ellipse id="Ellipse 9" cx="102.926" cy="48.7396" rx="26.2354" ry="26.2354" fill="url(#paint0_linear_341_336)"/>
<path id="Union" d="M76.6906 85.663C55.7614 85.663 38.7949 102.629 38.7949 123.559V135C38.7949 147.703 49.0924 158 61.7949 158H62.1153V118.906C62.1153 116.914 63.73 115.299 65.7218 115.299C67.5456 115.299 69.0823 116.661 69.3021 118.471L69.329 138.586L69.2191 158H137.39L137.202 138.586L137.522 118.471C137.741 116.661 139.278 115.299 141.102 115.299C143.094 115.299 144.708 116.914 144.708 118.906V158H145.029C157.731 158 168.029 147.703 168.029 135V123.559C168.029 102.629 151.062 85.663 130.133 85.663H76.6906Z" fill="url(#paint1_linear_341_336)"/>
</g>
</g>
<g id="&#240;&#159;&#166;&#134; icon &#34;light bulb on&#34;">
<path id="Vector (Stroke)" fill-rule="evenodd" clip-rule="evenodd" d="M45.788 0.645594C46.6486 1.14247 46.9435 2.24294 46.4466 3.10356L44.7502 6.0419C44.2533 6.90252 43.1528 7.19739 42.2922 6.70052C41.4316 6.20364 41.1367 5.10317 41.6336 4.24255L43.33 1.30421C43.8269 0.443585 44.9274 0.148715 45.788 0.645594Z" fill="white"/>
<path id="Vector (Stroke)_2" fill-rule="evenodd" clip-rule="evenodd" d="M1.61714 12.4808C2.11402 11.6202 3.21449 11.3253 4.07511 11.8222L7.01345 13.5187C7.87407 14.0155 8.16894 15.116 7.67207 15.9766C7.17519 16.8372 6.07472 17.1321 5.2141 16.6352L2.27576 14.9388C1.41514 14.4419 1.12027 13.3414 1.61714 12.4808Z" fill="white"/>
<path id="Vector (Stroke)_3" fill-rule="evenodd" clip-rule="evenodd" d="M49.0839 32.051C49.5808 31.1904 50.6813 30.8955 51.5419 31.3924L54.4803 33.0888C55.3409 33.5857 55.6357 34.6862 55.1389 35.5468C54.642 36.4074 53.5415 36.7023 52.6809 36.2054L49.7426 34.509C48.8819 34.0121 48.5871 32.9116 49.0839 32.051Z" fill="white"/>
<path id="Vector (Stroke)_4" fill-rule="evenodd" clip-rule="evenodd" d="M14.4648 41.3272C15.3254 41.8241 15.6203 42.9246 15.1234 43.7852L13.4269 46.7235C12.9301 47.5842 11.8296 47.879 10.969 47.3822C10.1083 46.8853 9.81348 45.7848 10.3104 44.9242L12.0068 41.9858C12.5037 41.1252 13.6042 40.8304 14.4648 41.3272Z" fill="white"/>
<path id="Vector (Stroke)_5" fill-rule="evenodd" clip-rule="evenodd" d="M25.2782 47.1989C25.021 46.239 25.5907 45.2523 26.5505 44.9951L40.4549 41.2694C41.4148 41.0122 42.4015 41.5819 42.6587 42.5418C42.9159 43.5017 42.3462 44.4883 41.3863 44.7455L27.482 48.4712C26.5221 48.7284 25.5354 48.1588 25.2782 47.1989Z" fill="white"/>
<path id="Vector (Stroke)_6" fill-rule="evenodd" clip-rule="evenodd" d="M29.4579 53.5304C29.2007 52.5705 29.7703 51.5839 30.7302 51.3267L39.9998 48.8429C40.9597 48.5857 41.9464 49.1553 42.2036 50.1152C42.4608 51.0751 41.8911 52.0618 40.9312 52.319L31.6617 54.8027C30.7018 55.0599 29.7151 54.4903 29.4579 53.5304Z" fill="white"/>
<path id="Vector" d="M24.6523 10.1095C15.3824 12.5934 11.8478 18.3846 13.8527 25.4222C14.8302 28.8534 16.5634 30.9053 19.5021 32.6016C22.4408 34.298 23.91 35.1462 25.1515 39.7811L39.0558 36.0555C37.8144 31.4208 38.6626 29.9514 40.3584 27.0135C42.0546 24.0752 42.5306 21.431 41.6614 17.9709C39.8789 10.8737 33.9223 7.62564 24.6523 10.1095Z" fill="white"/>
<path id="Vector (Stroke)_7" fill-rule="evenodd" clip-rule="evenodd" d="M13.5366 15.0471C15.6496 11.9362 19.2937 9.68259 24.1872 8.37138C29.0808 7.06015 33.3635 7.18976 36.7488 8.82738C40.1829 10.4886 42.4106 13.5646 43.4071 17.5324C44.3979 21.4764 43.831 24.5979 41.9174 27.9129C41.0377 29.437 40.5689 30.2824 40.3691 31.2588C40.1791 32.1875 40.2093 33.405 40.7945 35.5898C41.0516 36.5497 40.4819 37.5362 39.5221 37.7934L25.6179 41.519C25.1569 41.6425 24.6657 41.5779 24.2524 41.3392C23.8391 41.1006 23.5375 40.7075 23.4141 40.2466C22.8288 38.0616 22.2464 36.9923 21.6176 36.2831C20.9565 35.5376 20.1277 35.0399 18.6032 34.1599C15.2873 32.2458 13.2369 29.8257 12.1228 25.915C11.0019 21.9805 11.3932 18.2027 13.5366 15.0471ZM16.5136 17.0691C15.0734 19.1894 14.6998 21.826 15.5838 24.929L13.8533 25.422L15.5838 24.9291C16.4247 27.8808 17.8408 29.5645 20.4023 31.0432C20.4438 31.0671 20.4853 31.0911 20.5268 31.115C21.897 31.9054 23.2245 32.6711 24.3102 33.8955C25.1689 34.8638 25.8172 36.0407 26.3637 37.5935L36.9137 34.7666C36.6108 33.1485 36.584 31.8052 36.8434 30.5374C37.1714 28.9345 37.9377 27.6078 38.7287 26.2384C38.7527 26.1969 38.7766 26.1554 38.8006 26.1138L38.8007 26.1137C40.2794 23.5522 40.6646 21.3855 39.9168 18.4092L39.9168 18.409C39.1309 15.2797 37.4891 13.1831 35.1817 12.067C32.8257 10.9273 29.495 10.6748 25.1186 11.8475C20.7423 13.0201 17.9841 14.904 16.5136 17.0691Z" fill="white"/>
</g>
</g>
<defs>
<linearGradient id="paint0_linear_341_336" x1="103.217" y1="22.7321" x2="103.285" y2="157.881" gradientUnits="userSpaceOnUse">
<stop stop-color="white"/>
<stop offset="1" stop-color="#E00501"/>
</linearGradient>
<linearGradient id="paint1_linear_341_336" x1="104.129" y1="85.9772" x2="103.925" y2="158.001" gradientUnits="userSpaceOnUse">
<stop stop-color="white"/>
<stop offset="1" stop-color="#E00501"/>
</linearGradient>
</defs>
</svg>
