<svg width="122" height="170" viewBox="0 0 122 170" fill="none" xmlns="http://www.w3.org/2000/svg">
<g id="Union">
<path d="M98.9856 2.46987C99.3508 1.91589 100.216 1.11046 100.904 0.679927C101.898 0.0611826 102.671 -0.0744535 104.608 0.0337506C105.09 0.0611826 105.492 0.0924247 105.836 0.136621C106.225 0.187675 106.541 0.255493 106.824 0.353029C107.358 0.538957 107.76 0.832328 108.279 1.32306C109.92 2.87449 110.608 4.28038 110.608 6.09699C110.608 6.52295 110.451 7.30095 110.166 8.34032C109.589 10.4358 108.493 13.5943 107.118 17.0767L106.483 18.6662C105.728 20.5179 103.405 26.6733 101.254 32.4683C100.004 35.8371 98.8137 39.0848 98.025 41.2946C97.5186 42.7073 96.8925 44.4424 96.3554 45.91L95.536 48.1221C94.5324 50.8051 94.5263 50.8706 95.2414 51.8407C95.9227 52.7642 96.5488 53.8981 97.0153 55.0014C97.2362 55.5219 97.4204 56.0347 97.5585 56.5163C97.6536 56.8516 97.7242 57.1709 97.7702 57.4665C98.1416 59.844 97.1257 62.6047 92.8414 70.8457C91.6322 73.1721 90.7576 74.9232 90.1929 76.1607C89.4839 77.7076 89.2568 78.4513 89.4594 78.5107C89.7479 78.5945 91.4849 78.9748 93.3233 79.3565C102.779 81.3194 111.473 85.8122 118.563 92.4005C120.453 94.1576 122 95.7624 122 95.9666C122 96.2737 120.337 97.1226 118.078 98.0377C116.823 98.5468 115.383 99.0763 113.947 99.545C107.864 101.525 98.5252 102.937 91.5126 102.937H88.2164V124.997C88.2164 151.665 87.8021 156.997 85.1751 164.115C84.4047 166.203 82.1061 168.215 79.2949 169.259C78.856 169.421 78.4662 169.557 78.1194 169.667C77.6621 169.811 77.2755 169.907 76.9501 169.958C76.0356 170.101 75.5814 169.877 75.2653 169.288C74.9952 168.784 74.8602 157.305 74.8602 134.792V101.051L72.2085 100.19C68.8879 99.1137 66.3161 98.1063 63.1795 96.6562C62.3785 96.2851 61.6696 95.9941 61.1878 95.7959C60.8594 95.6618 60.6353 95.5704 60.5555 95.5247L59.0456 94.6598L0.578072 112.866C-1.49657 106.287 2.1893 99.2813 8.8122 97.2186L45.7814 85.7078L34.7115 76.4975C32.0783 73.7551 31.3479 72.5404 32.0691 72.0977C32.9806 71.5392 39.9411 71.1437 48.7368 71.1513C58.3919 71.1589 64.1892 71.9194 70.7968 74.0446C71.4259 74.2465 72.0305 74.4279 72.5645 74.5773C73.654 74.8821 74.4458 75.0527 74.5502 74.9895C75.0167 74.7045 74.4182 72.4475 73.2735 70.1653C71.9323 67.496 68.4644 64.1881 65.6777 62.9202C62.3509 61.4084 47.4478 58.7177 28.1131 56.1391C20.8488 55.1706 19.4371 54.7797 18.0652 53.3578C16.052 51.2722 16.276 46.8336 18.5041 44.6215C20.5972 42.542 21.969 42.3484 28.1316 43.2605L42.6479 45.3903C57.9315 47.6184 69.7503 49.4167 73.3226 50.0545C78.4754 50.9773 79.835 50.8813 81.1301 49.5044C81.7562 48.8376 82.7536 46.8168 83.4871 44.7251C84.1868 42.731 85.5618 38.9049 86.5438 36.2227L88.1336 31.8153C88.9622 29.5034 89.8706 26.9484 90.5888 24.9085C93.179 17.5392 95.3979 11.4272 96.9201 7.43735C97.9881 4.63547 98.7155 2.87982 98.9856 2.46987Z" fill="#E00501"/>
<path d="M69.4157 43.6964C75.4893 43.6964 80.415 38.8059 80.415 32.7724C80.415 26.7388 75.4893 21.8483 69.4157 21.8483C63.3422 21.8483 58.4165 26.7388 58.4165 32.7724C58.4165 38.8059 63.3422 43.6964 69.4157 43.6964Z" fill="#E00501"/>
</g>
</svg>
